<svg xmlns="http://www.w3.org/2000/svg" width="1200" height="1440" viewBox="0 0 1200 1440" role="img" aria-labelledby="title desc">
  <title id="title">SpoolmanDB Community JSON structure</title>
  <desc id="desc">A white, black, and orange visual map of every JSON object structure used by SpoolmanDB Community.</desc>
  <defs>
    <filter id="softShadow" x="-20%" y="-20%" width="140%" height="140%">
      <feDropShadow dx="0" dy="14" stdDeviation="16" flood-color="#111111" flood-opacity="0.11"/>
    </filter>
    <marker id="arrow" markerWidth="12" markerHeight="12" refX="10" refY="6" orient="auto">
      <path d="M2 2 L10 6 L2 10 Z" fill="#f97316"/>
    </marker>
    <pattern id="grid" width="32" height="32" patternUnits="userSpaceOnUse">
      <path d="M32 0H0V32" fill="none" stroke="#111111" stroke-opacity="0.045" stroke-width="1"/>
    </pattern>
    <style>
      .bg { fill: #ffffff; }
      .grid { fill: url(#grid); }
      .title { font: 800 42px "Segoe UI", Inter, Arial, sans-serif; fill: #111111; letter-spacing: 0; }
      .subtitle { font: 500 17px "Segoe UI", Inter, Arial, sans-serif; fill: #595959; letter-spacing: 0; }
      .card { fill: #ffffff; stroke: #111111; stroke-opacity: 0.12; stroke-width: 1.2; }
      .card-dark { fill: #111111; stroke: #111111; stroke-width: 1.2; }
      .section { font: 800 20px "Segoe UI", Inter, Arial, sans-serif; fill: #111111; letter-spacing: 0; }
      .section-dark { font: 800 20px "Segoe UI", Inter, Arial, sans-serif; fill: #ffffff; letter-spacing: 0; }
      .note { font: 500 14px "Segoe UI", Inter, Arial, sans-serif; fill: #666666; letter-spacing: 0; }
      .note-dark { font: 500 14px "Segoe UI", Inter, Arial, sans-serif; fill: #d8d8d8; letter-spacing: 0; }
      .mono { font: 650 15px "Cascadia Mono", "SFMono-Regular", Consolas, monospace; fill: #111111; letter-spacing: 0; }
      .mono-small { font: 600 13px "Cascadia Mono", "SFMono-Regular", Consolas, monospace; fill: #555555; letter-spacing: 0; }
      .mono-dark { font: 650 15px "Cascadia Mono", "SFMono-Regular", Consolas, monospace; fill: #ffffff; letter-spacing: 0; }
      .mono-small-dark { font: 600 13px "Cascadia Mono", "SFMono-Regular", Consolas, monospace; fill: #d8d8d8; letter-spacing: 0; }
      .badge { fill: #fff4ea; stroke: #f97316; stroke-opacity: 0.35; }
      .badge-dark { fill: #111111; stroke: #111111; }
      .badge-text { font: 800 12px "Segoe UI", Inter, Arial, sans-serif; fill: #bb4500; letter-spacing: 0; }
      .badge-text-dark { font: 800 12px "Segoe UI", Inter, Arial, sans-serif; fill: #ffffff; letter-spacing: 0; }
      .row { fill: #f7f7f7; }
      .row-orange { fill: #fff4ea; }
      .dot { fill: #f97316; }
      .optional { fill: #666666; }
      .arrow-line { stroke: #f97316; stroke-width: 4; stroke-linecap: round; marker-end: url(#arrow); }
      .line { stroke: #111111; stroke-opacity: 0.12; stroke-width: 1.2; }
    </style>
  </defs>

  <rect class="bg" width="1200" height="1440" rx="28"/>
  <rect class="grid" width="1200" height="1440" rx="28"/>

  <g transform="translate(58 48)">
    <rect x="0" y="0" width="96" height="96" rx="24" fill="#111111"/>
    <path d="M30 31H58L68 41V70H30Z" fill="#ffffff"/>
    <path d="M58 31V42H69" fill="none" stroke="#f97316" stroke-width="4" stroke-linecap="round" stroke-linejoin="round"/>
    <text x="44" y="60" class="mono" fill="#111111">{ }</text>
    <text x="124" y="38" class="title">JSON Structure</text>
    <text x="126" y="70" class="subtitle">Every source and generated JSON object used by SpoolmanDB Community.</text>
  </g>

  <g transform="translate(904 58)">
    <rect class="badge" x="0" y="0" width="92" height="30" rx="15"/>
    <text class="badge-text" x="46" y="20" text-anchor="middle">REQUIRED</text>
    <rect class="badge" x="108" y="0" width="94" height="30" rx="15"/>
    <text class="badge-text" x="155" y="20" text-anchor="middle">OPTIONAL</text>
  </g>

  <g filter="url(#softShadow)">
    <g transform="translate(58 170)">
      <rect class="card" width="1084" height="128" rx="22"/>
      <rect x="0" y="0" width="8" height="128" rx="4" fill="#f97316"/>
      <rect class="badge" x="28" y="24" width="132" height="28" rx="14"/>
      <text x="94" y="43" class="badge-text" text-anchor="middle">filaments/*.json</text>
      <text x="184" y="44" class="section">Manufacturer Source File</text>
      <text x="184" y="69" class="note">Root object for one manufacturer file.</text>
      <circle class="dot" cx="44" cy="96" r="5"/>
      <text x="58" y="101" class="mono">manufacturer</text>
      <text x="182" y="101" class="mono-small">string</text>
      <circle class="dot" cx="330" cy="96" r="5"/>
      <text x="344" y="101" class="mono">filaments[]</text>
      <text x="462" y="101" class="mono-small">array&lt;Filament Product&gt;</text>
    </g>

    <g transform="translate(58 338)">
      <rect class="card-dark" width="1084" height="248" rx="22"/>
      <rect x="0" y="0" width="8" height="248" rx="4" fill="#f97316"/>
      <rect class="badge" x="28" y="24" width="136" height="28" rx="14"/>
      <text x="96" y="43" class="badge-text" text-anchor="middle">source object</text>
      <text x="188" y="44" class="section-dark">Filament Product</text>
      <text x="188" y="69" class="note-dark">Compact product definition. Compiler expands weight x diameter x color.</text>

      <g transform="translate(28 96)">
        <rect x="0" y="0" width="150" height="36" rx="10" fill="#242424"/>
        <circle class="dot" cx="18" cy="18" r="5"/>
        <text x="32" y="23" class="mono-dark">name</text>
        <rect x="164" y="0" width="150" height="36" rx="10" fill="#242424"/>
        <circle class="dot" cx="182" cy="18" r="5"/>
        <text x="196" y="23" class="mono-dark">material</text>
        <rect x="328" y="0" width="150" height="36" rx="10" fill="#242424"/>
        <circle class="dot" cx="346" cy="18" r="5"/>
        <text x="360" y="23" class="mono-dark">density</text>
        <rect x="492" y="0" width="150" height="36" rx="10" fill="#242424"/>
        <circle class="dot" cx="510" cy="18" r="5"/>
        <text x="524" y="23" class="mono-dark">weights[]</text>
        <rect x="656" y="0" width="150" height="36" rx="10" fill="#242424"/>
        <circle class="dot" cx="674" cy="18" r="5"/>
        <text x="688" y="23" class="mono-dark">diameters[]</text>
        <rect x="820" y="0" width="150" height="36" rx="10" fill="#242424"/>
        <circle class="dot" cx="838" cy="18" r="5"/>
        <text x="852" y="23" class="mono-dark">colors[]</text>
      </g>

      <g transform="translate(28 154)">
        <rect x="0" y="0" width="1028" height="64" rx="14" fill="#242424"/>
        <text x="22" y="27" class="mono-small-dark">? extruder_temp / extruder_temp_range / bed_temp / bed_temp_range / fill / finish / multi_color_direction</text>
        <text x="22" y="50" class="mono-small-dark">? pattern / translucent / glow / country_of_origin / sds_url / tds_url</text>
      </g>
    </g>

    <g transform="translate(58 626)">
      <rect class="card" width="340" height="160" rx="22"/>
      <rect x="0" y="0" width="8" height="160" rx="4" fill="#f97316"/>
      <text x="28" y="40" class="section">Weight Option</text>
      <text x="28" y="65" class="note">Objects inside product weights[].</text>
      <circle class="dot" cx="34" cy="100" r="5"/>
      <text x="48" y="105" class="mono">weight</text>
      <text x="138" y="105" class="mono-small">number</text>
      <text x="48" y="132" class="mono-small">? spool_weight</text>
      <text x="194" y="132" class="mono-small">? spool_type</text>
    </g>

    <g transform="translate(430 626)">
      <rect class="card" width="340" height="160" rx="22"/>
      <rect x="0" y="0" width="8" height="160" rx="4" fill="#f97316"/>
      <text x="28" y="40" class="section">Diameter Option</text>
      <text x="28" y="65" class="note">Numbers inside product diameters[].</text>
      <rect x="28" y="92" width="220" height="42" rx="12" class="row-orange"/>
      <circle class="dot" cx="48" cy="113" r="5"/>
      <text x="64" y="118" class="mono">number[]</text>
      <text x="160" y="118" class="mono-small">1.75 / 2.85</text>
    </g>

    <g transform="translate(802 626)">
      <rect class="card" width="340" height="160" rx="22"/>
      <rect x="0" y="0" width="8" height="160" rx="4" fill="#f97316"/>
      <text x="28" y="40" class="section">Material Defaults</text>
      <text x="28" y="65" class="note">Rows in materials.json.</text>
      <circle class="dot" cx="34" cy="100" r="5"/>
      <text x="48" y="105" class="mono">material</text>
      <circle class="dot" cx="166" cy="100" r="5"/>
      <text x="180" y="105" class="mono">density</text>
      <text x="48" y="132" class="mono-small">? extruder_temp</text>
      <text x="206" y="132" class="mono-small">? bed_temp</text>
    </g>

    <g transform="translate(58 826)">
      <rect class="card" width="1084" height="222" rx="22"/>
      <rect x="0" y="0" width="8" height="222" rx="4" fill="#f97316"/>
      <text x="28" y="42" class="section">Color Variant</text>
      <text x="28" y="67" class="note">Objects inside product colors[]. Use either single-color hex or multi-color hexes.</text>

      <g transform="translate(28 96)">
        <rect x="0" y="0" width="158" height="36" rx="10" class="row-orange"/>
        <circle class="dot" cx="18" cy="18" r="5"/>
        <text x="32" y="23" class="mono">name</text>
        <rect x="180" y="0" width="252" height="36" rx="10" class="row-orange"/>
        <circle class="dot" cx="198" cy="18" r="5"/>
        <text x="212" y="23" class="mono">hex</text>
        <text x="260" y="23" class="mono-small">OR</text>
        <text x="296" y="23" class="mono">hexes[]</text>
        <rect x="454" y="0" width="574" height="36" rx="10" class="row"/>
        <text x="474" y="23" class="mono-small">? finish / multi_color_direction / pattern / translucent / glow</text>
      </g>
      <g transform="translate(28 150)">
        <rect x="0" y="0" width="318" height="36" rx="10" class="row"/>
        <text x="20" y="23" class="mono-small">? codes[] manufacturer SKUs</text>
        <rect x="338" y="0" width="318" height="36" rx="10" class="row"/>
        <text x="358" y="23" class="mono-small">? eans[] spooled barcodes</text>
        <rect x="676" y="0" width="352" height="36" rx="10" class="row"/>
        <text x="696" y="23" class="mono-small">? eans_refill[] refill barcodes</text>
      </g>
    </g>

    <g transform="translate(58 1088)">
      <rect class="card-dark" width="1084" height="246" rx="22"/>
      <rect x="0" y="0" width="8" height="246" rx="4" fill="#f97316"/>
      <rect class="badge" x="28" y="24" width="122" height="28" rx="14"/>
      <text x="89" y="43" class="badge-text" text-anchor="middle">filaments.json</text>
      <text x="174" y="44" class="section-dark">Compiled Public Row</text>
      <text x="174" y="69" class="note-dark">Flat output consumed by Spoolman. Extra metadata stays backward-compatible.</text>
      <g transform="translate(28 98)">
        <rect x="0" y="0" width="1028" height="116" rx="14" fill="#242424"/>
        <text x="22" y="28" class="mono-small-dark">id, manufacturer, name, material, density, weight, spool_weight, spool_type, diameter</text>
        <text x="22" y="54" class="mono-small-dark">color_hex, color_hexes, extruder_temp, extruder_temp_range, bed_temp, bed_temp_range</text>
        <text x="22" y="80" class="mono-small-dark">finish, multi_color_direction, pattern, translucent, glow, codes, eans, eans_refill</text>
      </g>
    </g>
  </g>

  <path class="arrow-line" d="M600 306V328"/>
  <path class="arrow-line" d="M600 594V616"/>
  <path class="arrow-line" d="M600 794V816"/>
  <path class="arrow-line" d="M600 1056V1078"/>

  <g transform="translate(58 1378)">
    <rect x="0" y="-24" width="92" height="34" rx="17" fill="#111111"/>
    <text x="46" y="-2" class="badge-text-dark" text-anchor="middle">legend</text>
    <circle class="dot" cx="126" cy="-7" r="5"/>
    <text x="140" y="-2" class="mono-small">required field</text>
    <text x="288" y="-2" class="mono-small">? optional field</text>
    <text x="434" y="-2" class="mono-small">[] array</text>
    <text x="540" y="-2" class="mono-small">orange arrows show compile flow</text>
  </g>
</svg>
